<svg width="218" height="205" viewBox="0 0 218 205" fill="none" xmlns="http://www.w3.org/2000/svg">
<path d="M154.236 199.399C181.141 188.561 189.087 170.331 202.189 140.276C215.291 110.221 223.414 91.5368 212.841 64.9118C202.268 38.2868 183.732 30.1036 153.644 17.0142C123.556 3.92493 105.259 -3.99992 78.1741 6.36425C51.0886 16.7284 43.4009 35.4677 30.2992 65.5344C17.1976 95.6011 9.10996 114.168 19.5654 140.871C30.0209 167.575 48.7051 175.597 78.817 188.687C108.929 201.776 127.578 209.869 154.236 199.399Z" fill="#FAAF00"/>
<path d="M14.5787 113.577C14.0534 122.222 15.3863 130.989 19.2831 140.867C21.4261 146.481 24.3165 151.78 27.8764 156.623H195.089C197.442 151.6 199.833 146.157 202.409 140.257C206.721 130.354 210.52 121.693 213.272 113.577H14.5787Z" fill="white"/>
<path d="M125.762 84.1408L142.404 91.1455L135.406 129.603L181.627 137.99L188.624 99.5207L206.658 98.8198C206.658 98.8198 205.219 82.6608 203.153 74.3405C200.299 62.6959 184.069 58.9567 184.069 58.9567C183.423 61.9344 181.644 64.5449 179.107 66.237C176.57 67.9292 173.474 68.5707 170.472 68.026C167.471 67.4813 164.799 65.7931 163.02 63.3178C161.241 60.8425 160.495 57.7737 160.939 54.7593C160.939 54.7593 144.427 52.5589 137.656 62.4571C132.819 69.5206 125.762 84.1408 125.762 84.1408Z" fill="white"/>
<path d="M182.889 139.81L133.603 130.863L140.66 92.1005L123.646 84.947L124.359 83.463C124.649 82.86 131.502 68.6509 136.383 61.5679C143.616 50.9962 160.453 53.1144 161.167 53.2084L162.794 53.4238L162.5 55.0408C162.181 57.6211 162.862 60.2256 164.404 62.3201C165.946 64.4146 168.232 65.8404 170.794 66.3052C173.355 66.7699 175.997 66.2383 178.178 64.8194C180.36 63.4005 181.915 61.2019 182.525 58.6744L182.819 57.0573L184.422 57.4293C185.12 57.5898 201.624 61.5287 204.674 73.9681C206.748 82.308 208.16 98.0167 208.203 98.6784L208.348 100.319L189.922 101.036L182.889 139.81ZM137.229 128.342L180.353 136.173L187.311 98.005L204.953 97.3198C204.529 93.0128 203.279 81.286 201.648 74.7159C199.535 66.102 189.103 62.1121 185.214 60.8983C184.209 63.9496 182.134 66.5351 179.37 68.1781C176.607 69.8211 173.342 70.4108 170.177 69.8385C167.013 69.2662 164.162 67.5704 162.151 65.0639C160.14 62.5574 159.104 59.4092 159.234 56.1998C155.149 55.9688 143.98 56.0628 138.986 63.3572C135.14 68.9367 129.836 79.4771 127.926 83.3534L144.188 90.178L137.229 128.342Z" fill="#1B1B1B"/>
<path d="M177.334 90.8673C176.852 87.9934 175.233 86.8148 172.563 84.8767C169.893 82.9385 168.251 81.7443 165.385 82.1946C162.519 82.6449 161.331 84.2933 159.391 86.9597C157.45 89.6261 156.255 91.2471 156.705 94.1289C157.156 97.0106 158.811 98.1696 161.48 100.108C164.15 102.046 165.793 103.24 168.651 102.798C171.508 102.355 172.7 100.695 174.641 98.0286C176.581 95.3622 177.785 93.706 177.334 90.8673Z" fill="#FFF4CC"/>
<path d="M112.7 12.9151C111.332 13.0483 110.348 14.3717 110.462 15.8713L111.344 26.0514C111.385 26.5897 111.62 27.0948 112.006 27.4729C112.391 27.851 112.901 28.0763 113.441 28.107C114.017 28.0776 114.558 27.8221 114.947 27.396C115.335 26.9699 115.539 26.4079 115.515 25.8322L115.425 15.6246V15.3858C115.295 13.8822 114.08 12.7703 112.712 12.9034L112.7 12.9151Z" fill="#1B1B1B"/>
<path d="M134.94 22.8488C135.267 22.2285 135.356 21.5102 135.189 20.8292C135.022 20.1483 134.611 19.5519 134.034 19.1526L134.003 19.133C133.719 18.9562 133.4 18.8414 133.068 18.7962C132.737 18.751 132.399 18.7763 132.078 18.8706C131.756 18.9649 131.459 19.126 131.204 19.3433C130.949 19.5606 130.744 19.8292 130.6 20.1314L126.049 28.9294C125.787 29.4394 125.706 30.023 125.819 30.5848C125.933 31.1466 126.233 31.6535 126.672 32.0226C127.11 32.3198 127.649 32.431 128.169 32.3319C128.69 32.2328 129.15 31.9315 129.448 31.4941L129.475 31.4549L134.736 23.1228L134.94 22.8488Z" fill="#1B1B1B"/>
<path d="M148.246 37.5904C147.642 36.2748 146.211 35.6875 144.988 36.2826L136.708 40.5896C136.221 40.8686 135.849 41.3104 135.657 41.837C135.464 42.3636 135.465 42.9411 135.657 43.4675C135.731 43.7364 135.859 43.9872 136.034 44.2044C136.209 44.4215 136.427 44.6003 136.674 44.7297C136.921 44.859 137.193 44.936 137.471 44.956C137.749 44.976 138.029 44.9384 138.292 44.8457H138.308L146.995 41.3218H147.195C147.796 40.9486 148.237 40.3663 148.433 39.6873C148.629 39.0083 148.567 38.2808 148.257 37.6452L148.246 37.5904Z" fill="#1B1B1B"/>
<path d="M92.7377 169.047H0.986816V172.179H92.7377V169.047Z" fill="#1B1B1B"/>
<path d="M192.702 179.227H152.961V182.359H192.702V179.227Z" fill="#1B1B1B"/>
<path d="M215.318 164.666H175.578V167.798H215.318V164.666Z" fill="#1B1B1B"/>
<path d="M132.427 53.8548C124.484 39.8297 102.123 40.8947 102.123 40.8947C102.519 45.0578 101.244 49.2077 98.5771 52.4316C97.2566 54.0279 95.6342 55.3488 93.8025 56.3189C91.9708 57.289 89.9658 57.8893 87.9019 58.0854C83.7336 58.4816 79.5785 57.2077 76.3506 54.5441C73.1227 51.8805 71.0864 48.0453 70.6898 43.8822C70.6898 43.8822 48.5243 47.0419 43.3691 62.316C39.6527 73.2284 35.8813 94.7046 35.8813 94.7046L59.952 97.696L64.9348 150.018L127.801 144.047L122.799 91.7249L145.877 84.2543C145.877 84.2543 138.119 63.8744 132.427 53.8548Z" fill="white"/>
<path d="M63.5042 151.725L58.494 99.0935L34.0273 96.0551L34.3135 94.4341C34.4664 93.5492 38.1476 72.7112 41.8601 61.8106C47.2584 45.8121 69.4983 42.4644 70.4431 42.3313L72.07 42.1003L72.2269 43.733C72.5861 47.4828 74.4221 50.9365 77.3309 53.3344C80.2397 55.7322 83.9831 56.8777 87.7376 56.5189C91.492 56.1601 94.95 54.3264 97.3508 51.4212C99.7516 48.516 100.899 44.7773 100.539 41.0275L100.386 39.3947L102.025 39.3164C102.982 39.2694 125.449 38.3728 133.78 53.0674C139.484 63.091 147.022 82.86 147.324 83.7058L147.912 85.2445L124.481 92.8288L129.491 145.46L63.5042 151.725ZM37.7007 93.3534L61.3754 96.2978L66.3307 148.311L126.072 142.637L121.121 90.6244L143.816 83.2751C141.899 78.3573 135.728 62.8443 131.047 54.6297C124.853 43.69 108.823 42.5388 103.746 42.4566C103.738 46.7641 102.125 50.9144 99.2207 54.0986C96.3163 57.2829 92.3288 59.273 88.0354 59.6812C83.7419 60.0893 79.4502 58.8862 75.9964 56.3063C72.5427 53.7265 70.1745 49.9547 69.3533 45.726C64.3823 46.7636 48.854 50.914 44.8356 62.8208C41.7856 71.7637 38.6533 88.1615 37.7007 93.3534Z" fill="#1B1B1B"/>
<path d="M75.4726 40.1505L73.728 37.5468L85.4027 29.7394L98.2143 34.7355L97.0696 37.6525L85.7869 33.2515L75.4726 40.1505Z" fill="#1B1B1B"/>
<path d="M84.7327 19.5386L81.6606 20.169L84.0567 31.8169L87.1288 31.1865L84.7327 19.5386Z" fill="#1B1B1B"/>
<path d="M80.2397 13.2555L80.2162 13.1576C79.1499 8.49042 77.5425 3.50998 71.7169 3.50998C69.6117 3.50998 68.0123 4.10121 66.9655 5.26409C65.072 7.35494 65.3896 10.781 65.3896 10.8123L62.2533 11.1412C62.2298 10.9454 61.7829 6.32518 64.629 3.16542C66.2991 1.31733 68.6787 0.377625 71.713 0.377625C80.5102 0.377625 82.4429 8.84672 83.2701 12.4607L83.2936 12.5586L80.2397 13.2555Z" fill="#1B1B1B"/>
<path d="M181.643 54.7473L174.323 48.6862L165.381 51.1569L164.632 48.4396L174.99 45.5813L183.442 52.5821L181.643 54.7473Z" fill="#1B1B1B"/>
<path d="M176.081 37.9322L173.311 46.7119L175.999 47.5579L178.769 38.7783L176.081 37.9322Z" fill="#1B1B1B"/>
<path d="M179.671 35.8006L177.001 34.8961L177.154 34.4419C178.087 31.6345 180.29 25.0683 186.955 26.0668C189.248 26.4074 191.012 27.4019 192.204 29.0112C194.243 31.7794 193.721 35.3464 193.698 35.4991L190.918 35.0762C191 34.5202 191.565 29.5946 186.543 28.8507C182.529 28.2477 181.027 31.7207 179.828 35.3268L179.671 35.8006Z" fill="#1B1B1B"/>
<path d="M109.078 90.12C108.294 85.4215 105.644 83.499 101.276 80.3314C96.9092 77.1638 94.2002 75.1982 89.5429 75.9461C84.8856 76.6939 82.9136 79.376 79.7421 83.7378C76.5706 88.0996 74.6418 90.7543 75.3474 95.4528C76.0531 100.151 78.7895 102.062 83.1567 105.241C87.5239 108.421 90.2133 110.367 94.8824 109.638C99.5514 108.91 101.5 106.201 104.683 101.839C107.866 97.4771 109.815 94.7676 109.078 90.12Z" fill="white"/>
<path d="M93.0319 111.349C88.9156 111.349 86.0302 109.255 82.2354 106.502L81.9727 106.31C77.6839 103.201 74.5868 100.954 73.7989 95.6875C73.0148 90.3429 75.1749 87.3476 78.4719 82.8174C81.6669 78.4243 83.9603 75.2528 89.2919 74.3992C94.6235 73.5457 97.7833 75.8597 102.198 79.0625C106.733 82.3554 109.732 84.5441 110.622 89.8613C111.461 95.1472 109.144 98.3304 105.938 102.735L105.898 102.79C102.711 107.171 100.41 110.339 95.1214 111.165C94.4306 111.28 93.7321 111.341 93.0319 111.349ZM91.4128 77.3554C90.869 77.3568 90.3261 77.4026 89.7898 77.4924C85.748 78.1385 84.0661 80.4525 81.0083 84.6577C77.8721 88.9647 76.3039 91.1456 76.8998 95.2294C77.4957 99.1957 79.7381 100.825 83.8152 103.781L84.0818 103.973C88.2962 107.031 90.6209 108.718 94.6431 108.088C98.6654 107.457 100.32 105.155 103.366 100.969L103.405 100.915C106.471 96.7016 108.16 94.3758 107.529 90.3742C106.847 86.3139 104.675 84.7399 100.351 81.5997C96.7523 78.9686 94.5059 77.3554 91.4128 77.3554Z" fill="#1B1B1B"/>
</svg>
